<svg aria-roledescription="gitGraph" role="graphics-document document" viewBox="-67.68423080444336 -50 688.7974853515625 988" height="988" xmlns:xlink="http://www.w3.org/1999/xlink" xmlns="http://www.w3.org/2000/svg" width="688.7974853515625" id="my-svg" style="background-color: rgb(36, 36, 36);"><style>#my-svg{font-family:"trebuchet ms",verdana,arial,sans-serif;font-size:16px;fill:#ccc;}#my-svg .error-icon{fill:#a44141;}#my-svg .error-text{fill:#ddd;stroke:#ddd;}#my-svg .edge-thickness-normal{stroke-width:2px;}#my-svg .edge-thickness-thick{stroke-width:3.5px;}#my-svg .edge-pattern-solid{stroke-dasharray:0;}#my-svg .edge-pattern-dashed{stroke-dasharray:3;}#my-svg .edge-pattern-dotted{stroke-dasharray:2;}#my-svg .marker{fill:lightgrey;stroke:lightgrey;}#my-svg .marker.cross{stroke:lightgrey;}#my-svg svg{font-family:"trebuchet ms",verdana,arial,sans-serif;font-size:16px;}#my-svg .commit-id,#my-svg .commit-msg,#my-svg .branch-label{fill:lightgrey;color:lightgrey;font-family:'trebuchet ms',verdana,arial,sans-serif;font-family:var(--mermaid-font-family);}#my-svg .branch-label0{fill:#2c2c2c;}#my-svg .commit0{stroke:hsl(180, 1.5873015873%, 48.3529411765%);fill:hsl(180, 1.5873015873%, 48.3529411765%);}#my-svg .commit-highlight0{stroke:rgb(133.6571428571, 129.7428571428, 129.7428571428);fill:rgb(133.6571428571, 129.7428571428, 129.7428571428);}#my-svg .label0{fill:hsl(180, 1.5873015873%, 48.3529411765%);}#my-svg .arrow0{stroke:hsl(180, 1.5873015873%, 48.3529411765%);}#my-svg .branch-label1{fill:lightgrey;}#my-svg .commit1{stroke:hsl(321.6393442623, 65.5913978495%, 38.2352941176%);fill:hsl(321.6393442623, 65.5913978495%, 38.2352941176%);}#my-svg .commit-highlight1{stroke:rgb(93.5483870969, 221.4516129033, 139.677419355);fill:rgb(93.5483870969, 221.4516129033, 139.677419355);}#my-svg .label1{fill:hsl(321.6393442623, 65.5913978495%, 38.2352941176%);}#my-svg .arrow1{stroke:hsl(321.6393442623, 65.5913978495%, 38.2352941176%);}#my-svg .branch-label2{fill:lightgrey;}#my-svg .commit2{stroke:hsl(194.4, 16.5562913907%, 49.6078431373%);fill:hsl(194.4, 16.5562913907%, 49.6078431373%);}#my-svg .commit-highlight2{stroke:rgb(149.4437086091, 117.6092715231, 107.5562913906);fill:rgb(149.4437086091, 117.6092715231, 107.5562913906);}#my-svg .label2{fill:hsl(194.4, 16.5562913907%, 49.6078431373%);}#my-svg .arrow2{stroke:hsl(194.4, 16.5562913907%, 49.6078431373%);}#my-svg .branch-label3{fill:#2c2c2c;}#my-svg .commit3{stroke:hsl(23.0769230769, 49.0566037736%, 40.7843137255%);fill:hsl(23.0769230769, 49.0566037736%, 40.7843137255%);}#my-svg .commit-highlight3{stroke:rgb(99.9811320754, 162.7735849057, 202.0188679245);fill:rgb(99.9811320754, 162.7735849057, 202.0188679245);}#my-svg .label3{fill:hsl(23.0769230769, 49.0566037736%, 40.7843137255%);}#my-svg .arrow3{stroke:hsl(23.0769230769, 49.0566037736%, 40.7843137255%);}#my-svg .branch-label4{fill:lightgrey;}#my-svg .commit4{stroke:hsl(0, 83.3333333333%, 43.5294117647%);fill:hsl(0, 83.3333333333%, 43.5294117647%);}#my-svg .commit-highlight4{stroke:rgb(51.5000000001, 236.5, 236.5);fill:rgb(51.5000000001, 236.5, 236.5);}#my-svg .label4{fill:hsl(0, 83.3333333333%, 43.5294117647%);}#my-svg .arrow4{stroke:hsl(0, 83.3333333333%, 43.5294117647%);}#my-svg .branch-label5{fill:lightgrey;}#my-svg .commit5{stroke:hsl(289.1666666667, 100%, 24.1176470588%);fill:hsl(289.1666666667, 100%, 24.1176470588%);}#my-svg .commit-highlight5{stroke:rgb(154.2083333334, 255, 132.0000000001);fill:rgb(154.2083333334, 255, 132.0000000001);}#my-svg .label5{fill:hsl(289.1666666667, 100%, 24.1176470588%);}#my-svg .arrow5{stroke:hsl(289.1666666667, 100%, 24.1176470588%);}#my-svg .branch-label6{fill:lightgrey;}#my-svg .commit6{stroke:hsl(35.1315789474, 98.7012987013%, 40.1960784314%);fill:hsl(35.1315789474, 98.7012987013%, 40.1960784314%);}#my-svg .commit-highlight6{stroke:rgb(51.331168831, 135.1948051946, 253.6688311688);fill:rgb(51.331168831, 135.1948051946, 253.6688311688);}#my-svg .label6{fill:hsl(35.1315789474, 98.7012987013%, 40.1960784314%);}#my-svg .arrow6{stroke:hsl(35.1315789474, 98.7012987013%, 40.1960784314%);}#my-svg .branch-label7{fill:lightgrey;}#my-svg .commit7{stroke:hsl(106.1538461538, 84.4155844156%, 35.0980392157%);fill:hsl(106.1538461538, 84.4155844156%, 35.0980392157%);}#my-svg .commit-highlight7{stroke:rgb(206.1818181817, 89.948051948, 241.051948052);fill:rgb(206.1818181817, 89.948051948, 241.051948052);}#my-svg .label7{fill:hsl(106.1538461538, 84.4155844156%, 35.0980392157%);}#my-svg .arrow7{stroke:hsl(106.1538461538, 84.4155844156%, 35.0980392157%);}#my-svg .branch{stroke-width:1;stroke:lightgrey;stroke-dasharray:2;}#my-svg .commit-label{font-size:10px;fill:rgb(183.8476190475, 181.5523809523, 181.5523809523);}#my-svg .commit-label-bkg{font-size:10px;fill:hsl(180, 1.5873015873%, 28.3529411765%);opacity:0.5;}#my-svg .tag-label{font-size:10px;fill:#e0dfdf;}#my-svg .tag-label-bkg{fill:#1f2020;stroke:#cccccc;}#my-svg .tag-hole{fill:#ccc;}#my-svg .commit-merge{stroke:#1f2020;fill:#1f2020;}#my-svg .commit-reverse{stroke:#1f2020;fill:#1f2020;stroke-width:3;}#my-svg .commit-highlight-inner{stroke:#1f2020;fill:#1f2020;}#my-svg .arrow{stroke-width:8;stroke-linecap:round;fill:none;}#my-svg .gitTitleText{text-anchor:middle;font-size:18px;fill:#ccc;}#my-svg :root{--mermaid-font-family:"trebuchet ms",verdana,arial,sans-serif;}</style><g/><g class="commit-bullets"/><g class="commit-labels"/><g><line class="branch branch0" y2="930" x2="0" y1="30" x1="0"/><rect height="22.5" width="52.9921875" y="0" x="-27.49609375" ry="4" rx="4" class="branchLabelBkg label0"/><g class="branchLabel"><g transform="translate(-22.49609375, 0)" class="label branch-label0"><text><tspan class="row" x="0" dy="1em" xml:space="preserve">main</tspan></text></g></g><line class="branch branch1" y2="930" x2="107.49609375" y1="30" x1="107.49609375"/><rect height="22.5" width="60.1640625" y="0" x="76.4140625" ry="4" rx="4" class="branchLabelBkg label1"/><g class="branchLabel"><g transform="translate(81.4140625, 0)" class="label branch-label1"><text><tspan class="row" x="0" dy="1em" xml:space="preserve">hotfix</tspan></text></g></g><line class="branch branch2" y2="930" x2="218.578125" y1="30" x1="218.578125"/><rect height="22.5" width="74.421875" y="0" x="180.3671875" ry="4" rx="4" class="branchLabelBkg label2"/><g class="branchLabel"><g transform="translate(185.3671875, 0)" class="label branch-label2"><text><tspan class="row" x="0" dy="1em" xml:space="preserve">develop</tspan></text></g></g><line class="branch branch3" y2="930" x2="336.7890625" y1="30" x1="336.7890625"/><rect height="22.5" width="80.1328125" y="0" x="295.72265625" ry="4" rx="4" class="branchLabelBkg label3"/><g class="branchLabel"><g transform="translate(300.72265625, 0)" class="label branch-label3"><text><tspan class="row" x="0" dy="1em" xml:space="preserve">featureB</tspan></text></g></g><line class="branch branch4" y2="930" x2="457.85546875" y1="30" x1="457.85546875"/><rect height="22.5" width="80.515625" y="0" x="416.59765625" ry="4" rx="4" class="branchLabelBkg label4"/><g class="branchLabel"><g transform="translate(421.59765625, 0)" class="label branch-label4"><text><tspan class="row" x="0" dy="1em" xml:space="preserve">featureA</tspan></text></g></g><line class="branch branch5" y2="930" x2="579.11328125" y1="30" x1="579.11328125"/><rect height="22.5" width="70" y="0" x="543.11328125" ry="4" rx="4" class="branchLabelBkg label5"/><g class="branchLabel"><g transform="translate(548.11328125, 0)" class="label branch-label5"><text><tspan class="row" x="0" dy="1em" xml:space="preserve">release</tspan></text></g></g></g><g class="commit-arrows"><path class="arrow arrow1" d="M 0 40 L 87.49609375 40 A 20 20, 0, 0, 1, 107.49609375 60 L 107.49609375 90"/><path class="arrow arrow2" d="M 107.49609375 90 L 198.578125 90 A 20 20, 0, 0, 1, 218.578125 110 L 218.578125 140"/><path class="arrow arrow3" d="M 218.578125 140 L 316.7890625 140 A 20 20, 0, 0, 1, 336.7890625 160 L 336.7890625 190"/><path class="arrow arrow1" d="M 107.49609375 90 L 107.49609375 90  107.49609375 240 L 107.49609375 240"/><path class="arrow arrow2" d="M 218.578125 140 L 218.578125 140  218.578125 290 L 218.578125 290"/><path class="arrow arrow3" d="M 336.7890625 190 L 336.7890625 190  336.7890625 340 L 336.7890625 340"/><path class="arrow arrow0" d="M 0 40 L 0 40  0 390 L 0 390"/><path class="arrow arrow1" d="M 107.49609375 240 L 107.49609375 370 A 20 20, 0, 0, 1, 87.49609375 390 L 0 390"/><path class="arrow arrow3" d="M 336.7890625 340 L 336.7890625 340  336.7890625 440 L 336.7890625 440"/><path class="arrow arrow4" d="M 218.578125 290 L 437.85546875 290 A 20 20, 0, 0, 1, 457.85546875 310 L 457.85546875 490"/><path class="arrow arrow2" d="M 218.578125 290 L 218.578125 290  218.578125 540 L 218.578125 540"/><path class="arrow arrow2" d="M 107.49609375 240 L 153.037109375 240 A 10 10, 0, 0, 1, 163.037109375 250 L 163.037109375 530 A 10 10, 0, 0, 0, 173.037109375 540 L 218.578125 540"/><path class="arrow arrow4" d="M 457.85546875 490 L 457.85546875 490  457.85546875 590 L 457.85546875 590"/><path class="arrow arrow3" d="M 336.7890625 440 L 336.7890625 440  336.7890625 640 L 336.7890625 640"/><path class="arrow arrow2" d="M 218.578125 540 L 218.578125 540  218.578125 690 L 218.578125 690"/><path class="arrow arrow4" d="M 457.85546875 590 L 457.85546875 670 A 20 20, 0, 0, 1, 437.85546875 690 L 218.578125 690"/><path class="arrow arrow5" d="M 218.578125 690 L 559.11328125 690 A 20 20, 0, 0, 1, 579.11328125 710 L 579.11328125 740"/><path class="arrow arrow0" d="M 0 390 L 0 390  0 790 L 0 790"/><path class="arrow arrow5" d="M 579.11328125 740 L 579.11328125 740  579.11328125 840 L 579.11328125 840"/><path class="arrow arrow5" d="M 0 790 L 559.11328125 790 A 20 20, 0, 0, 1, 579.11328125 810 L 579.11328125 840"/><path class="arrow arrow2" d="M 218.578125 690 L 218.578125 690  218.578125 890 L 218.578125 890"/><path class="arrow arrow5" d="M 579.11328125 840 L 579.11328125 870 A 20 20, 0, 0, 1, 559.11328125 890 L 218.578125 890"/></g><g class="commit-bullets"><circle class="commit 0-fd48c20 commit0" r="10" cy="40" cx="0"/><circle class="commit 1-cc21d80 commit1" r="10" cy="90" cx="107.49609375"/><circle class="commit ash commit2" r="10" cy="140" cx="218.578125"/><rect class="commit 3-53ac06e commit-highlight3 commit-highlight-outer" width="20" height="20" y="180" x="326.7890625"/><rect class="commit 3-53ac06e commit3 commit-highlight-inner" width="12" height="12" y="184" x="330.7890625"/><circle class="commit 4-c01ab15 commit1" r="10" cy="240" cx="107.49609375"/><circle class="commit 5-8dc61d0 commit2" r="10" cy="290" cx="218.578125"/><path class="commit commit-reverse 5-8dc61d0 commit2" d="M 213.578125,285L223.578125,295M213.578125,295L223.578125,285"/><circle class="commit 6-21b1b01 commit3" r="10" cy="340" cx="336.7890625"/><circle class="commit 7-7d96db7 commit0" r="9" cy="390" cx="0"/><circle class="commit commit-merge 7-7d96db7 commit0" r="6" cy="390" cx="0"/><circle class="commit 8-617933f commit3" r="10" cy="440" cx="336.7890625"/><circle class="commit 9-acfa007 commit4" r="10" cy="490" cx="457.85546875"/><circle class="commit 10-1e0ddfd commit2" r="9" cy="540" cx="218.578125"/><circle class="commit commit-merge 10-1e0ddfd commit2" r="6" cy="540" cx="218.578125"/><circle class="commit 11-2ef1619 commit4" r="10" cy="590" cx="457.85546875"/><circle class="commit 12-0a1fc6e commit3" r="10" cy="640" cx="336.7890625"/><circle class="commit 13-cedce83 commit2" r="9" cy="690" cx="218.578125"/><circle class="commit commit-merge 13-cedce83 commit2" r="6" cy="690" cx="218.578125"/><circle class="commit 14-f6e8ab0 commit5" r="10" cy="740" cx="579.11328125"/><circle class="commit 15-e75149b commit0" r="10" cy="790" cx="0"/><circle class="commit 16-14a760d commit5" r="9" cy="840" cx="579.11328125"/><circle class="commit commit-merge 16-14a760d commit5" r="6" cy="840" cx="579.11328125"/><circle class="commit 17-4fcad03 commit2" r="9" cy="890" cx="218.578125"/><circle class="commit commit-merge 17-4fcad03 commit2" r="6" cy="890" cx="218.578125"/></g><g class="commit-labels"><g><rect transform="rotate(-45, 0, 40)" height="15.5" width="48.1171875" y="28" x="-65.1171875" class="commit-label-bkg"/><text transform="rotate(-45, 0, 40)" class="commit-label" y="39.5" x="-60.1171875">0-fd48c20</text></g><g><rect transform="rotate(-45, 107.49609375, 90)" height="15.5" width="49.3671875" y="78" x="41.12890625" class="commit-label-bkg"/><text transform="rotate(-45, 107.49609375, 90)" class="commit-label" y="89.5" x="46.12890625">1-cc21d80</text></g><g><rect transform="rotate(-45, 218.578125, 140)" height="15.5" width="18.765625" y="128" x="182.8125" class="commit-label-bkg"/><text transform="rotate(-45, 218.578125, 140)" class="commit-label" y="139.5" x="187.8125">ash</text></g><polygon transform="translate(12,12) rotate(45, 218.578125,130)" points="218.578125,132&#10;            218.578125,128&#10;            228.578125,122.25&#10;            248.359375,122.25&#10;            248.359375,137.75&#10;            228.578125,137.75" class="tag-label-bkg"/><circle transform="translate(12,12) rotate(45, 218.578125,130)" class="tag-hole" r="1.5" cy="130" cx="220.578125"/><text transform="translate(14,14) rotate(45, 218.578125,130)" x="223.578125" class="tag-label" y="133">abc</text><g><rect transform="rotate(-45, 336.7890625, 190)" height="15.5" width="49.5546875" y="178" x="270.234375" class="commit-label-bkg"/><text transform="rotate(-45, 336.7890625, 190)" class="commit-label" y="189.5" x="275.234375">3-53ac06e</text></g><g><rect transform="rotate(-45, 107.49609375, 240)" height="15.5" width="49.671875" y="228" x="40.82421875" class="commit-label-bkg"/><text transform="rotate(-45, 107.49609375, 240)" class="commit-label" y="239.5" x="45.82421875">4-c01ab15</text></g><g><rect transform="rotate(-45, 218.578125, 290)" height="15.5" width="49.9921875" y="278" x="151.5859375" class="commit-label-bkg"/><text transform="rotate(-45, 218.578125, 290)" class="commit-label" y="289.5" x="156.5859375">5-8dc61d0</text></g><g><rect transform="rotate(-45, 336.7890625, 340)" height="15.5" width="50.28125" y="328" x="269.5078125" class="commit-label-bkg"/><text transform="rotate(-45, 336.7890625, 340)" class="commit-label" y="339.5" x="274.5078125">6-21b1b01</text></g><g><rect transform="rotate(-45, 336.7890625, 440)" height="15.5" width="48.1259765625" y="428" x="271.6630859375" class="commit-label-bkg"/><text transform="rotate(-45, 336.7890625, 440)" class="commit-label" y="439.5" x="276.6630859375">8-617933f</text></g><g><rect transform="rotate(-45, 457.85546875, 490)" height="15.5" width="47.8046875" y="478" x="393.05078125" class="commit-label-bkg"/><text transform="rotate(-45, 457.85546875, 490)" class="commit-label" y="489.5" x="398.05078125">9-acfa007</text></g><g><rect transform="rotate(-45, 457.85546875, 590)" height="15.5" width="53.53125" y="578" x="387.32421875" class="commit-label-bkg"/><text transform="rotate(-45, 457.85546875, 590)" class="commit-label" y="589.5" x="392.32421875">11-2ef1619</text></g><g><rect transform="rotate(-45, 336.7890625, 640)" height="15.5" width="53.25" y="628" x="266.5390625" class="commit-label-bkg"/><text transform="rotate(-45, 336.7890625, 640)" class="commit-label" y="639.5" x="271.5390625">12-0a1fc6e</text></g><g><rect transform="rotate(-45, 579.11328125, 740)" height="15.5" width="53.875" y="728" x="508.23828125" class="commit-label-bkg"/><text transform="rotate(-45, 579.11328125, 740)" class="commit-label" y="739.5" x="513.23828125">14-f6e8ab0</text></g><g><rect transform="rotate(-45, 0, 790)" height="15.5" width="55.40625" y="778" x="-72.40625" class="commit-label-bkg"/><text transform="rotate(-45, 0, 790)" class="commit-label" y="789.5" x="-67.40625">15-e75149b</text></g></g><text class="gitTitleText" y="-25" x="276.7145118713379">Git History</text></svg>